<svg width="27" height="27" viewBox="0 0 27 27" fill="none" xmlns="http://www.w3.org/2000/svg">
<path d="M9.59247 22.6368L9.59247 23.1368H9.59247L9.59247 22.6368ZM19.7726 22.6368V22.1368H19.7726L19.7726 22.6368ZM21.9055 20.8935L21.4152 20.7952L21.9055 20.8935ZM23.2105 14.3877L23.7008 14.486L23.2105 14.3877ZM16.1179 11.7938L15.7023 11.5158C15.5997 11.6692 15.5899 11.8666 15.6769 12.0294C15.7638 12.1921 15.9334 12.2938 16.1179 12.2938V11.7938ZM18.7561 7.84837L19.1717 8.1263V8.1263L18.7561 7.84837ZM17.4738 4.54158L17.3529 5.02674V5.02674L17.4738 4.54158ZM17.4221 4.52869L17.543 4.04353L17.543 4.04353L17.4221 4.52869ZM5.24219 11.7938L5.24219 11.2938C5.10958 11.2938 4.9824 11.3464 4.88863 11.4402C4.79487 11.534 4.74219 11.6612 4.74219 11.7938H5.24219ZM5.24219 22.6368H4.74219C4.74219 22.913 4.96604 23.1368 5.24219 23.1368L5.24219 22.6368ZM15.243 5.22124L14.8639 4.89528V4.89528L15.243 5.22124ZM9.09247 11.7938V22.6368H10.0925V11.7938H9.09247ZM9.59247 23.1368L19.7726 23.1368L19.7726 22.1368L9.59247 22.1368L9.59247 23.1368ZM22.3957 20.9919L23.7008 14.486L22.7203 14.2893L21.4152 20.7952L22.3957 20.9919ZM21.0776 11.2938H16.1179V12.2938H21.0776V11.2938ZM16.5335 12.0717L19.1717 8.1263L18.3404 7.57045L15.7023 11.5158L16.5335 12.0717ZM17.5947 4.05643L17.543 4.04353L17.3011 5.01385L17.3529 5.02674L17.5947 4.05643ZM9.59247 11.2938L5.24219 11.2938L5.24219 12.2938L9.59247 12.2938L9.59247 11.2938ZM4.74219 11.7938V22.6368H5.74219V11.7938H4.74219ZM5.24219 23.1368L9.59247 23.1368L9.59247 22.1368L5.24219 22.1368L5.24219 23.1368ZM17.543 4.04353C16.5607 3.79869 15.5235 4.12802 14.8639 4.89528L15.6222 5.5472C16.0349 5.06713 16.6849 4.86024 17.3011 5.01385L17.543 4.04353ZM19.1717 8.1263C20.1994 6.58941 19.3884 4.5035 17.5947 4.05643L17.3529 5.02674C18.4777 5.30711 18.9815 6.61175 18.3404 7.57045L19.1717 8.1263ZM23.7008 14.486C24.0324 12.8328 22.764 11.2938 21.0776 11.2938V12.2938C22.1365 12.2938 22.9271 13.2587 22.7203 14.2893L23.7008 14.486ZM19.7726 23.1368C21.0466 23.1368 22.1453 22.2401 22.3957 20.9919L21.4152 20.7952C21.2589 21.5743 20.5722 22.1368 19.7726 22.1368V23.1368ZM14.8639 4.89528L9.21332 11.4678L9.97161 12.1197L15.6222 5.5472L14.8639 4.89528Z" fill="#001A72"/>
</svg>
